<?xml version="1.0" standalone="no"?>
<!DOCTYPE svg PUBLIC "-//W3C//DTD SVG 20010904//EN"
 "http://www.w3.org/TR/2001/REC-SVG-20010904/DTD/svg10.dtd">
<svg version="1.0" xmlns="http://www.w3.org/2000/svg"
 width="317.000000pt" height="317.000000pt" viewBox="0 0 317.000000 317.000000"
 preserveAspectRatio="xMidYMid meet">

<g transform="translate(0.000000,317.000000) scale(0.100000,-0.100000)"
fill="#000000" stroke="none">
<path d="M1856 2778 c-49 -84 -113 -189 -141 -233 -29 -44 -63 -100 -75 -125
-19 -39 -288 -495 -415 -705 -23 -38 -109 -182 -190 -320 -172 -291 -223 -375
-242 -393 -24 -25 -13 -30 80 -37 106 -8 2207 -3 2207 5 0 3 -7 15 -15 28 -9
12 -31 48 -49 79 -18 32 -103 180 -188 328 -473 823 -828 1445 -847 1483 -12
23 -25 42 -29 42 -4 0 -47 -69 -96 -152z m193 -110 c46 -79 114 -195 151 -258
59 -99 178 -303 480 -820 36 -63 100 -171 140 -240 126 -215 179 -314 174
-322 -3 -4 -473 -8 -1045 -8 -878 0 -1039 2 -1039 14 0 8 29 63 64 122 35 60
177 305 316 544 250 430 301 515 367 617 19 29 51 85 72 125 79 153 211 368
225 368 7 0 49 -64 95 -142z"/>
</g>
</svg>
